<svg fill="none" height="137" viewBox="0 0 451 137" width="451" xmlns="http://www.w3.org/2000/svg" xmlns:xlink="http://www.w3.org/1999/xlink"><linearGradient id="a" gradientUnits="userSpaceOnUse" x1="115.452" x2="78.1985" y1="100.964" y2="-1.38896"><stop offset="0" stop-color="#ff4c0d"/><stop offset="1" stop-color="#fc9502"/></linearGradient><g fill="#7a7fb9"><path d="m30.208 129.51c5.2907 0 9.1733-2.176 11.648-6.528s3.712-10.197 3.712-17.536v-20.3517c-3.4987 4.9494-7.0827 8.448-10.752 10.496s-7.6373 3.072-11.904 3.072c-4.096 0-7.8933-1.024-11.392-3.072-3.49867-2.1333-6.31467-5.248-8.448-9.344-2.048-4.096-3.072-9.088-3.072-14.976 0-7.3386 1.32267-13.696 3.968-19.072 2.73067-5.4613 6.5707-9.6426 11.52-12.544 5.0347-2.9013 10.9227-4.352 17.664-4.352 3.328 0 8.0213.5547 14.08 1.664 5.12.8534 8.96 1.3654 11.52 1.536l1.408 1.664-1.536 2.304c-.5973.8534-1.024 1.664-1.28 2.432-.256.6827-.384 1.536-.384 2.56v55.9357c0 10.496-2.56 18.56-7.68 24.192-5.0347 5.718-11.9467 8.576-20.736 8.576-4.6933 0-8.704-.896-12.032-2.688-3.328-1.706-5.8027-3.968-7.424-6.784-1.62133-2.73-2.432-5.674-2.432-8.832 0-4.266 1.45067-7.936 4.352-11.008 2.9013-2.986 6.8693-4.48 11.904-4.48.8533 0 1.4507.128 1.792.384.4267.342.64.683.64 1.024 0 .342-.5973 1.152-1.792 2.432s-2.2613 2.816-3.2 4.608c-.8533 1.792-1.28 4.054-1.28 6.784 0 3.414.9813 6.23 2.944 8.448 2.048 2.304 4.7787 3.456 8.192 3.456zm-16.768-60.6717c0 6.8267 1.3653 11.8614 4.096 15.104 2.816 3.2427 6.3147 4.864 10.496 4.864 3.4133 0 6.6133-.9386 9.6-2.816 2.9867-1.9626 5.632-4.9066 7.936-8.832v-30.848c-3.9253-2.6453-8.1067-3.968-12.544-3.968-6.2293 0-11.0507 2.3467-14.464 7.04-3.4133 4.608-5.12 11.0934-5.12 19.456z"/><path d="m175.532 94.0543c2.731 0 5.163-1.4506 7.296-4.352 2.133-2.9866 3.755-6.8693 4.864-11.648 1.195-4.864 1.792-9.9413 1.792-15.232 0-4.096-.469-8.064-1.408-11.904s-2.347-7.2533-4.224-10.24l-1.28-2.048 1.536-1.664 14.976-1.664c.427 5.2907.64 9.8134.64 13.568 0 3.9254-.213 8.1067-.64 12.544l2.688 17.92c.768 5.2907 1.92 9.088 3.456 11.392 1.536 2.2187 3.797 3.328 6.784 3.328 2.731 0 5.163-1.4506 7.296-4.352 2.133-2.9866 3.755-6.8693 4.864-11.648 1.195-4.864 1.792-9.9413 1.792-15.232 0-4.096-.469-8.064-1.408-11.904s-2.347-7.2533-4.224-10.24l-1.28-2.048 1.536-1.664 14.976-1.664c.427 5.2907.64 9.8134.64 13.568 0 11.3494-1.152 21.0774-3.456 29.184-2.304 8.0214-5.376 14.08-9.216 18.176-3.84 4.0957-7.979 6.1437-12.416 6.1437-4.949 0-8.832-1.194-11.648-3.5837-2.731-2.4746-4.864-6.656-6.4-12.544-2.304 5.2907-5.12 9.3014-8.448 12.032-3.243 2.7307-6.741 4.0957-10.496 4.0957-4.437 0-8.021-.81-10.752-2.4317-2.645-1.7066-4.779-4.3946-6.4-8.064-1.621-3.7546-2.901-8.96-3.84-15.616l-3.968-27.136c-.171-1.1093-.427-1.8346-.768-2.176-.341-.4266-.939-.64-1.792-.64h-5.632l-1.152-3.328c2.219-2.2186 4.864-4.0533 7.936-5.504 3.072-1.4506 5.803-2.176 8.192-2.176 2.304 0 3.669 1.3654 4.096 4.096l5.76 39.936c.768 5.2907 1.877 9.088 3.328 11.392 1.451 2.2187 3.584 3.328 6.4 3.328z"/><path d="m294.249 90.9823c-3.157 3.6694-6.912 6.4854-11.264 8.448-4.352 1.9627-9.045 2.9437-14.08 2.9437-5.888 0-11.051-1.365-15.488-4.0957-4.437-2.7306-7.893-6.5706-10.368-11.52-2.389-4.9493-3.584-10.6666-3.584-17.152 0-6.8266 1.365-12.8 4.096-17.92 2.731-5.2053 6.571-9.216 11.52-12.032 5.035-2.9013 10.88-4.352 17.536-4.352 4.693 0 8.661.896 11.904 2.688 3.328 1.7067 5.803 4.0107 7.424 6.912 1.621 2.816 2.432 5.888 2.432 9.216 0 3.584-.981 7.04-2.944 10.368-1.877 3.328-4.651 6.0587-8.32 8.192-3.669 2.048-8.064 3.072-13.184 3.072-2.731 0-5.76-.512-9.088-1.536s-4.992-2.5173-4.992-4.48c0-.6826.171-1.3226.512-1.92.427-.5973.896-.896 1.408-.896.256 0 1.109.2987 2.56.896 1.451.512 3.328.768 5.632.768 5.12 0 9.088-1.4506 11.904-4.352 2.901-2.9013 4.352-6.3146 4.352-10.24 0-3.328-1.067-6.1866-3.2-8.576-2.133-2.4746-5.12-3.712-8.96-3.712-5.461 0-9.728 2.432-12.8 7.296-3.072 4.7787-4.608 11.648-4.608 20.608 0 7.5947 1.621 13.568 4.864 17.92 3.243 4.2667 7.936 6.4 14.08 6.4 7.509 0 13.739-2.432 18.688-7.296.341-.3413.725-.512 1.152-.512.683 0 1.408.4267 2.176 1.28.768.768 1.152 1.5787 1.152 2.432 0 .4267-.171.8107-.512 1.152z"/><path d="m329.743 42.4703c-2.304 0-4.181.2987-5.632.896-1.451.512-2.304.768-2.56.768-.512 0-.981-.2986-1.408-.896-.341-.5973-.512-1.2373-.512-1.92 0-1.024.384-1.792 1.152-2.304 3.925-2.4746 8.235-3.712 12.928-3.712 5.291 0 9.984 1.3227 14.08 3.968 4.181 2.6454 7.424 6.3147 9.728 11.008 2.304 4.6934 3.456 10.0267 3.456 16 0 6.8267-1.451 13.0134-4.352 18.56-2.901 5.4614-6.869 9.7707-11.904 12.928-5.035 3.0717-10.709 4.6077-17.024 4.6077-4.949 0-9.557-.725-13.824-2.176-4.267-1.4503-7.637-3.413-10.112-5.8877v-80c0-1.024-.213-1.7493-.64-2.176-.341-.4266-.981-.64-1.92-.64h-5.632l-1.152-3.32797c2.475-2.21867 5.291-4.05333 8.448-5.504s5.973-2.176002 8.448-2.176002c1.195 0 2.176.384 2.944 1.152002.768.768 1.152 1.74933 1.152 2.944v86.52797c2.048 1.4507 4.096 2.5174 6.144 3.2 2.133.5974 4.565.896 7.296.896 5.717 0 10.24-2.3466 13.568-7.04 3.328-4.7786 4.992-11.2213 4.992-19.328 0-5.12-.768-9.6853-2.304-13.696-1.451-4.0106-3.499-7.1253-6.144-9.344-2.645-2.2186-5.717-3.328-9.216-3.328z"/><path d="m380.539 89.3183c0 2.9014 1.28 4.352 3.84 4.352 2.133 0 4.267-.896 6.4-2.688l2.432 3.328c-2.219 2.4747-4.608 4.4374-7.168 5.8877-2.56 1.451-4.949 2.176-7.168 2.176-3.499 0-6.016-1.066-7.552-3.1997-1.536-2.1333-2.304-5.5893-2.304-10.368v-74.496c0-1.024-.213-1.7493-.64-2.176-.341-.4266-.981-.64-1.92-.64h-5.632l-1.152-3.32797c2.475-2.21867 5.291-4.05333 8.448-5.504s5.973-2.176002 8.448-2.176002c1.195 0 2.176.384 2.944 1.152002.768.768 1.152 1.74933 1.152 2.944z"/><path d="m422.108 136.166c-4.693 0-8.704-.896-12.032-2.688-3.328-1.706-5.803-3.968-7.424-6.784-1.621-2.73-2.432-5.674-2.432-8.832 0-4.266 1.451-7.936 4.352-11.008 2.901-2.986 6.869-4.48 11.904-4.48.853 0 1.451.128 1.792.384.427.342.64.683.64 1.024 0 .342-.597 1.152-1.792 2.432s-2.261 2.816-3.2 4.608c-.853 1.792-1.28 4.054-1.28 6.784 0 3.414.981 6.23 2.944 8.448 2.048 2.304 4.779 3.456 8.192 3.456 5.291 0 9.173-2.176 11.648-6.528s3.712-10.197 3.712-17.536v-18.9437c-1.963 3.7547-4.907 6.7414-8.832 8.96-3.925 2.1334-8.235 3.2-12.928 3.2-6.059 0-10.795-1.8346-14.208-5.504-3.413-3.7546-5.12-9.0026-5.12-15.744v-28.416c0-1.024-.213-1.7493-.64-2.176-.341-.4266-.981-.64-1.92-.64h-5.632l-1.152-3.328c2.219-2.2186 4.907-4.0533 8.064-5.504 3.243-1.4506 6.187-2.176 8.832-2.176 1.195 0 2.176.384 2.944 1.152s1.152 1.7494 1.152 2.944v35.2c0 5.12 1.024 9.0027 3.072 11.648 2.048 2.6454 5.035 3.968 8.96 3.968 5.717 0 10.155-2.1333 13.312-6.4 3.243-4.352 4.864-10.3253 4.864-17.92 0-6.9973-.299-12.2026-.896-15.616-.597-3.4133-1.963-6.528-4.096-9.344l-1.536-2.048 1.536-1.92 15.616-1.664v68.2237c0 10.496-2.56 18.56-7.68 24.192-5.035 5.718-11.947 8.576-20.736 8.576z"/><path d="m79.256 111.88c.272-.144.568-.248.888-.312.336-.064.672-.096 1.008-.096v8.208c.224-.288.488-.576.792-.864.32-.288.68-.544 1.08-.768.4-.24.84-.432 1.32-.576.496-.16 1.024-.24 1.584-.24.8 0 1.512.144 2.136.432.64.288 1.184.688 1.632 1.2s.784 1.12 1.008 1.824c.24.688.36 1.432.36 2.232 0 1.04-.176 2.016-.528 2.928-.352.896-.848 1.68-1.488 2.352-.624.672-1.384 1.208-2.28 1.608-.88.384-1.856.576-2.928.576-1.088 0-2.008-.12-2.76-.36s-1.36-.52-1.824-.84zm5.784 6.696c-.848 0-1.616.256-2.304.768-.688.496-1.216 1.112-1.584 1.848v7.056c.384.304.872.552 1.464.744.608.192 1.288.288 2.04.288.608 0 1.176-.112 1.704-.336.544-.24 1.016-.584 1.416-1.032s.712-1.008.936-1.68c.24-.672.36-1.448.36-2.328 0-1.696-.36-3.008-1.08-3.936s-1.704-1.392-2.952-1.392z"/><path d="m98.8304 129.04c.768 0 1.4636-.216 2.0876-.648.624-.448 1.096-1.048 1.416-1.8v-8.712c.272-.144.568-.248.888-.312.336-.064.672-.096 1.008-.096v12.336c-.224.128-.504.216-.84.264-.32.064-.64.096-.96.096v-2.28c-.16.272-.384.56-.672.864-.272.288-.6.56-.984.816-.384.24-.8236.44-1.3196.6-.48.16-1.016.24-1.608.24s-1.152-.088-1.68-.264c-.512-.176-.96-.448-1.344-.816-.384-.384-.688-.856-.912-1.416-.224-.576-.336-1.256-.336-2.04v-7.992c.272-.144.568-.248.888-.312.336-.064.672-.096 1.008-.096v7.68c0 .72.088 1.328.264 1.824s.416.896.72 1.2.656.528 1.056.672c.416.128.856.192 1.32.192z"/><path d="m110.231 113.704c-.144.256-.368.528-.672.816-.304.272-.576.464-.816.576-.24-.112-.512-.304-.816-.576-.304-.288-.536-.56-.696-.816.16-.272.392-.552.696-.84s.576-.496.816-.624c.24.128.512.336.816.624.32.288.544.568.672.84zm-2.496 4.176c.272-.144.568-.248.888-.312.336-.064.672-.096 1.008-.096v12.336c-.224.128-.52.216-.888.264-.352.064-.688.096-1.008.096z"/><path d="m113.197 111.88c.272-.144.568-.248.888-.312.336-.064.672-.096 1.008-.096v18.336c-.224.128-.52.216-.888.264-.352.064-.688.096-1.008.096z"/><path d="m127.49 128.344c-.176.24-.392.48-.648.72s-.568.456-.936.648c-.352.192-.76.352-1.224.48s-.984.192-1.56.192c-.704 0-1.376-.128-2.016-.384s-1.216-.632-1.728-1.128c-.496-.512-.896-1.136-1.2-1.872-.288-.752-.432-1.616-.432-2.592 0-.96.176-1.872.528-2.736.368-.88.864-1.648 1.488-2.304s1.352-1.176 2.184-1.56c.848-.384 1.752-.576 2.712-.576.64 0 1.184.08 1.632.24.464.144.864.328 1.2.552v-6.144c.272-.144.568-.248.888-.312.336-.064.672-.096 1.008-.096v18.336c-.224.128-.52.216-.888.264-.352.064-.688.096-1.008.096zm-3.48.672c.896 0 1.632-.208 2.208-.624.592-.432 1.016-.928 1.272-1.488v-6.504c-.128-.256-.296-.504-.504-.744-.192-.256-.432-.48-.72-.672-.288-.208-.624-.368-1.008-.48-.368-.128-.784-.192-1.248-.192-.528 0-1.048.104-1.56.312s-.976.528-1.392.96c-.4.416-.728.952-.984 1.608-.24.656-.36 1.424-.36 2.304 0 1.008.128 1.864.384 2.568.272.688.608 1.256 1.008 1.704.416.432.88.752 1.392.96.512.192 1.016.288 1.512.288z"/><path d="m148.837 129.112c-.048.08-.128.176-.24.288-.096.112-.208.224-.336.336-.128.096-.272.184-.432.264-.144.08-.28.136-.408.168-.512-.032-.944-.224-1.296-.576-.352-.368-.544-.848-.576-1.44-.128.24-.32.496-.576.768-.256.256-.568.496-.936.72-.352.208-.76.376-1.224.504-.464.144-.968.216-1.512.216-1.136 0-2.04-.288-2.712-.864-.656-.576-.984-1.344-.984-2.304 0-.992.376-1.824 1.128-2.496s2.04-1.168 3.864-1.488l2.856-.504v-.936c0-1.152-.272-2.032-.816-2.64-.528-.608-1.32-.912-2.376-.912-.656 0-1.216.168-1.68.504-.448.32-.672.8-.672 1.44 0 .288.096.544.288.768-.144.192-.376.368-.696.528s-.648.256-.984.288c-.08-.08-.176-.2-.288-.36s-.168-.376-.168-.648c0-.496.144-.96.432-1.392s.664-.8 1.128-1.104c.464-.32 1-.568 1.608-.744s1.24-.264 1.896-.264c1.536 0 2.624.352 3.264 1.056.64.688.96 1.656.96 2.904v6.024c0 .656.144 1.112.432 1.368.288.24.624.384 1.008.432zm-6.768-.024c.832 0 1.536-.192 2.112-.576.592-.384 1.016-.88 1.272-1.488v-3.456l-3.216.576c-.864.16-1.528.432-1.992.816-.448.384-.672.936-.672 1.656 0 .8.24 1.416.72 1.848.496.416 1.088.624 1.776.624z"/><path d="m159.333 122.464c0-1.312-.264-2.28-.792-2.904-.512-.64-1.256-.96-2.232-.96-.768 0-1.456.232-2.064.696s-1.08 1.016-1.416 1.656v8.856c-.224.128-.52.216-.888.264-.352.064-.688.096-1.008.096v-12.288c.528-.272 1.12-.408 1.776-.408v2.232c.176-.272.4-.552.672-.84.288-.304.616-.576.984-.816.384-.24.808-.432 1.272-.576.464-.16.968-.24 1.512-.24.992 0 1.8.264 2.424.792.64.512 1.072 1.136 1.296 1.872.192-.256.432-.536.72-.84.304-.32.648-.616 1.032-.888s.808-.496 1.272-.672c.48-.176.992-.264 1.536-.264 1.216 0 2.2.384 2.952 1.152.768.752 1.152 1.864 1.152 3.336v8.088c-.224.128-.52.216-.888.264-.352.064-.688.096-1.008.096v-7.704c0-2.576-1-3.864-3-3.864-.656 0-1.296.224-1.92.672-.608.432-1.104.976-1.488 1.632v8.904c-.224.128-.52.216-.888.264-.352.064-.688.096-1.008.096z"/><path d="m183.526 129.112c-.048.08-.128.176-.24.288-.096.112-.208.224-.336.336-.128.096-.272.184-.432.264-.144.08-.28.136-.408.168-.512-.032-.944-.224-1.296-.576-.352-.368-.544-.848-.576-1.44-.128.24-.32.496-.576.768-.256.256-.568.496-.936.72-.352.208-.76.376-1.224.504-.464.144-.968.216-1.512.216-1.136 0-2.04-.288-2.712-.864-.656-.576-.984-1.344-.984-2.304 0-.992.376-1.824 1.128-2.496s2.04-1.168 3.864-1.488l2.856-.504v-.936c0-1.152-.272-2.032-.816-2.64-.528-.608-1.32-.912-2.376-.912-.656 0-1.216.168-1.68.504-.448.32-.672.8-.672 1.44 0 .288.096.544.288.768-.144.192-.376.368-.696.528s-.648.256-.984.288c-.08-.08-.176-.2-.288-.36s-.168-.376-.168-.648c0-.496.144-.96.432-1.392s.664-.8 1.128-1.104c.464-.32 1-.568 1.608-.744s1.24-.264 1.896-.264c1.536 0 2.624.352 3.264 1.056.64.688.96 1.656.96 2.904v6.024c0 .656.144 1.112.432 1.368.288.24.624.384 1.008.432zm-6.768-.024c.832 0 1.536-.192 2.112-.576.592-.384 1.016-.88 1.272-1.488v-3.456l-3.216.576c-.864.16-1.528.432-1.992.816-.448.384-.672.936-.672 1.656 0 .8.24 1.416.72 1.848.496.416 1.088.624 1.776.624z"/><path d="m194.429 117.472c.144.096.248.248.312.456l-8.184 11.304c.624-.016 1.248-.032 1.872-.048.624-.032 1.264-.064 1.92-.096s1.344-.064 2.064-.096c.72-.048 1.496-.112 2.328-.192-.032.32-.12.608-.264.864-.144.24-.312.408-.504.504h-9.432c-.064-.032-.128-.088-.192-.168-.064-.096-.112-.184-.144-.264l8.136-11.28c-1.248.08-2.496.144-3.744.192s-2.384.104-3.408.168c.032-.608.224-1.056.576-1.344z"/><path d="m199.371 113.704c-.144.256-.368.528-.672.816-.304.272-.576.464-.816.576-.24-.112-.512-.304-.816-.576-.304-.288-.536-.56-.696-.816.16-.272.392-.552.696-.84s.576-.496.816-.624c.24.128.512.336.816.624.32.288.544.568.672.84zm-2.496 4.176c.272-.144.568-.248.888-.312.336-.064.672-.096 1.008-.096v12.336c-.224.128-.52.216-.888.264-.352.064-.688.096-1.008.096z"/><path d="m211.193 122.512c0-1.36-.28-2.352-.84-2.976-.56-.64-1.352-.96-2.376-.96-.368 0-.736.072-1.104.216-.352.128-.696.304-1.032.528-.32.224-.624.488-.912.792-.288.288-.544.592-.768.912v8.784c-.224.128-.52.216-.888.264-.352.064-.688.096-1.008.096v-12.288c.528-.272 1.12-.408 1.776-.408v2.376c.208-.272.472-.56.792-.864.336-.32.704-.608 1.104-.864.416-.256.864-.464 1.344-.624.496-.176 1.024-.264 1.584-.264 1.296 0 2.32.392 3.072 1.176.768.784 1.152 1.904 1.152 3.36v8.04c-.224.128-.52.216-.888.264-.352.064-.688.096-1.008.096z"/><path d="m220.501 125.944c-.24 0-.472-.008-.696-.024-.208-.032-.424-.064-.648-.096-.416.16-.752.368-1.008.624-.256.24-.384.512-.384.816 0 .464.24.784.72.96s1.184.288 2.112.336l2.52.12c.752.032 1.384.152 1.896.36.528.208.952.472 1.272.792.32.304.552.648.696 1.032s.216.768.216 1.152c0 .656-.168 1.256-.504 1.8s-.808 1.008-1.416 1.392c-.592.384-1.304.68-2.136.888-.832.224-1.744.336-2.736.336-.752 0-1.44-.064-2.064-.192s-1.168-.328-1.632-.6c-.448-.256-.8-.576-1.056-.96-.256-.368-.384-.808-.384-1.32 0-.4.072-.752.216-1.056.16-.304.36-.568.6-.792.256-.224.536-.416.84-.576.304-.144.608-.256.912-.336.08.032.144.096.192.192s.08.184.096.264c-.288.16-.536.376-.744.648s-.312.656-.312 1.152c0 .416.104.776.312 1.08.224.32.528.584.912.792s.84.36 1.368.456c.544.096 1.136.144 1.776.144 1.36 0 2.376-.24 3.048-.72.688-.48 1.032-1.08 1.032-1.8s-.256-1.304-.768-1.752-1.4-.712-2.664-.792l-2.496-.144c-1.2-.08-2.08-.28-2.64-.6-.56-.336-.84-.84-.84-1.512 0-.288.056-.56.168-.816.128-.256.288-.488.48-.696.208-.208.432-.392.672-.552.256-.176.504-.32.744-.432-.704-.304-1.256-.752-1.656-1.344-.4-.608-.6-1.344-.6-2.208 0-.656.136-1.272.408-1.848.288-.576.68-1.072 1.176-1.488.496-.432 1.072-.768 1.728-1.008.672-.256 1.392-.384 2.16-.384.272 0 .528.016.768.048s.472.072.696.12c.08.016.16.024.24.024h.336c.704 0 1.184-.112 1.44-.336.272-.24.408-.536.408-.888 0-.208-.04-.384-.12-.528-.08-.16-.184-.296-.312-.408.496-.464 1.088-.696 1.776-.696.144.128.264.304.36.528.096.208.144.448.144.72 0 .672-.272 1.192-.816 1.56-.528.352-1.224.544-2.088.576.608.4 1.04.904 1.296 1.512.272.608.408 1.216.408 1.824 0 .704-.144 1.344-.432 1.92-.288.56-.68 1.048-1.176 1.464-.48.4-1.056.712-1.728.936-.656.224-1.352.336-2.088.336zm.288-7.752c-.4 0-.776.072-1.128.216-.336.128-.64.328-.912.6-.256.256-.464.576-.624.96-.144.384-.216.832-.216 1.344 0 .576.08 1.096.24 1.56.16.448.376.832.648 1.152.288.304.624.544 1.008.72.384.16.792.24 1.224.24.4 0 .776-.056 1.128-.168s.656-.288.912-.528c.272-.24.48-.552.624-.936.16-.384.24-.848.24-1.392 0-.496-.072-.968-.216-1.416-.128-.448-.328-.848-.6-1.2-.256-.352-.584-.632-.984-.84-.384-.208-.832-.312-1.344-.312z"/><path d="m248.843 127.816c-.16.192-.416.44-.768.744-.336.288-.784.576-1.344.864-.544.272-1.192.504-1.944.696-.752.208-1.608.312-2.568.312-1.056 0-2.072-.176-3.048-.528-.976-.368-1.848-.912-2.616-1.632-.752-.736-1.36-1.648-1.824-2.736-.448-1.104-.672-2.392-.672-3.864 0-1.264.224-2.456.672-3.576.464-1.12 1.096-2.096 1.896-2.928.816-.848 1.768-1.512 2.856-1.992s2.272-.72 3.552-.72c1.072 0 1.96.136 2.664.408s1.264.6 1.68.984c.432.368.744.752.936 1.152.192.384.312.704.36.96-.112.224-.328.44-.648.648-.304.192-.664.32-1.08.384-.096-.4-.256-.8-.48-1.2s-.536-.752-.936-1.056c-.384-.32-.864-.576-1.44-.768s-1.256-.288-2.04-.288c-.752 0-1.48.144-2.184.432-.704.272-1.336.696-1.896 1.272-.544.576-.984 1.312-1.32 2.208-.32.896-.48 1.96-.48 3.192 0 1.472.192 2.736.576 3.792.4 1.056.92 1.928 1.56 2.616.656.672 1.4 1.168 2.232 1.488s1.688.48 2.568.48c1.024 0 1.824-.104 2.4-.312.576-.224 1.032-.432 1.368-.624v-5.952c-.768.032-1.56.064-2.376.096-.816.016-1.56.024-2.232.024.032-.272.104-.52.216-.744.128-.224.264-.376.408-.456l5.952.048z"/><path d="m253.343 123.304c0 1.008.12 1.888.36 2.64.256.752.584 1.384.984 1.896.416.496.888.872 1.416 1.128.544.256 1.112.384 1.704.384 1.28 0 2.256-.424 2.928-1.272.672-.864 1.008-2.16 1.008-3.888 0-.832-.096-1.608-.288-2.328s-.48-1.344-.864-1.872c-.368-.528-.824-.944-1.368-1.248s-1.168-.456-1.872-.456c-.512 0-1.008.096-1.488.288s-.904.496-1.272.912c-.368.4-.672.92-.912 1.56-.224.624-.336 1.376-.336 2.256zm-2.016.744c0-.976.176-1.88.528-2.712.352-.848.824-1.568 1.416-2.16.608-.608 1.312-1.08 2.112-1.416.816-.352 1.68-.528 2.592-.528.992 0 1.848.168 2.568.504.736.336 1.336.784 1.8 1.344.48.56.832 1.216 1.056 1.968.24.752.36 1.544.36 2.376 0 .976-.152 1.888-.456 2.736s-.744 1.592-1.32 2.232c-.56.624-1.248 1.12-2.064 1.488s-1.744.552-2.784.552c-.768 0-1.504-.144-2.208-.432s-1.328-.704-1.872-1.248c-.528-.544-.952-1.208-1.272-1.992-.304-.8-.456-1.704-.456-2.712z"/><path d="m276.493 129.76c-.192.128-.456.224-.792.288-.336.08-.656.12-.96.12-.368-.848-.744-1.784-1.128-2.808-.368-1.04-.728-2.096-1.08-3.168-.336-1.088-.656-2.16-.96-3.216-.288-1.072-.528-2.08-.72-3.024.528-.32 1.152-.48 1.872-.48.128.768.304 1.608.528 2.52.224.896.48 1.832.768 2.808s.6 1.96.936 2.952c.336.976.672 1.928 1.008 2.856.336-.816.664-1.672.984-2.568.32-.912.624-1.824.912-2.736s.552-1.816.792-2.712c.24-.912.448-1.776.624-2.592.272-.16.568-.272.888-.336s.616-.096.888-.096c.144.768.336 1.616.576 2.544.256.928.536 1.888.84 2.88.304.976.624 1.96.96 2.952.352.976.704 1.92 1.056 2.832.336-.848.648-1.744.936-2.688.304-.944.576-1.896.816-2.856.256-.96.472-1.904.648-2.832.192-.944.352-1.832.48-2.664.384-.176.808-.264 1.272-.264.272 0 .456.016.552.048-.224.944-.488 1.928-.792 2.952-.288 1.024-.616 2.064-.984 3.12-.352 1.056-.736 2.104-1.152 3.144-.4 1.04-.816 2.048-1.248 3.024-.192.128-.464.224-.816.288-.352.08-.664.12-.936.12-.304-.704-.616-1.472-.936-2.304-.304-.832-.608-1.688-.912-2.568-.288-.88-.568-1.76-.84-2.64-.272-.896-.512-1.768-.72-2.616-.176.704-.392 1.472-.648 2.304s-.536 1.68-.84 2.544-.616 1.712-.936 2.544-.632 1.608-.936 2.328z"/><path d="m292.132 123.808c.048.864.2 1.624.456 2.28.272.64.616 1.176 1.032 1.608s.896.76 1.44.984c.56.208 1.152.312 1.776.312.784 0 1.456-.104 2.016-.312.576-.208 1.096-.536 1.56-.984.224.048.376.2.456.456-.112.176-.296.392-.552.648-.24.256-.568.504-.984.744-.4.24-.888.44-1.464.6-.56.176-1.216.264-1.968.264-.8 0-1.544-.144-2.232-.432s-1.288-.704-1.8-1.248-.92-1.216-1.224-2.016c-.288-.8-.432-1.704-.432-2.712 0-.928.16-1.8.48-2.616.32-.832.752-1.552 1.296-2.16.56-.608 1.208-1.088 1.944-1.44.752-.368 1.552-.552 2.4-.552.912 0 1.664.152 2.256.456s1.056.696 1.392 1.176c.352.48.592 1.008.72 1.584.144.576.216 1.136.216 1.68-.128.192-.304.36-.528.504-.208.144-.44.256-.696.336zm3.576-5.496c-.496 0-.96.088-1.392.264s-.808.448-1.128.816-.584.84-.792 1.416c-.192.576-.296 1.272-.312 2.088l6.768-.696c.016-.08.024-.16.024-.24s0-.152 0-.216c0-.496-.064-.952-.192-1.368s-.328-.776-.6-1.08c-.256-.304-.584-.544-.984-.72-.384-.176-.848-.264-1.392-.264z"/><path d="m303.5 111.88c.272-.144.568-.248.888-.312.336-.064.672-.096 1.008-.096v8.208c.224-.288.488-.576.792-.864.32-.288.68-.544 1.08-.768.4-.24.84-.432 1.32-.576.496-.16 1.024-.24 1.584-.24.8 0 1.512.144 2.136.432.64.288 1.184.688 1.632 1.2s.784 1.12 1.008 1.824c.24.688.36 1.432.36 2.232 0 1.04-.176 2.016-.528 2.928-.352.896-.848 1.68-1.488 2.352-.624.672-1.384 1.208-2.28 1.608-.88.384-1.856.576-2.928.576-1.088 0-2.008-.12-2.76-.36s-1.36-.52-1.824-.84zm5.784 6.696c-.848 0-1.616.256-2.304.768-.688.496-1.216 1.112-1.584 1.848v7.056c.384.304.872.552 1.464.744.608.192 1.288.288 2.04.288.608 0 1.176-.112 1.704-.336.544-.24 1.016-.584 1.416-1.032s.712-1.008.936-1.68c.24-.672.36-1.448.36-2.328 0-1.696-.36-3.008-1.08-3.936s-1.704-1.392-2.952-1.392z"/><path d="m333.866 129.112c-.048.08-.128.176-.24.288-.096.112-.208.224-.336.336-.128.096-.272.184-.432.264-.144.08-.28.136-.408.168-.512-.032-.944-.224-1.296-.576-.352-.368-.544-.848-.576-1.44-.128.24-.32.496-.576.768-.256.256-.568.496-.936.72-.352.208-.76.376-1.224.504-.464.144-.968.216-1.512.216-1.136 0-2.04-.288-2.712-.864-.656-.576-.984-1.344-.984-2.304 0-.992.376-1.824 1.128-2.496s2.04-1.168 3.864-1.488l2.856-.504v-.936c0-1.152-.272-2.032-.816-2.64-.528-.608-1.32-.912-2.376-.912-.656 0-1.216.168-1.68.504-.448.32-.672.8-.672 1.44 0 .288.096.544.288.768-.144.192-.376.368-.696.528s-.648.256-.984.288c-.08-.08-.176-.2-.288-.36s-.168-.376-.168-.648c0-.496.144-.96.432-1.392s.664-.8 1.128-1.104c.464-.32 1-.568 1.608-.744s1.24-.264 1.896-.264c1.536 0 2.624.352 3.264 1.056.64.688.96 1.656.96 2.904v6.024c0 .656.144 1.112.432 1.368.288.24.624.384 1.008.432zm-6.768-.024c.832 0 1.536-.192 2.112-.576.592-.384 1.016-.88 1.272-1.488v-3.456l-3.216.576c-.864.16-1.528.432-1.992.816-.448.384-.672.936-.672 1.656 0 .8.24 1.416.72 1.848.496.416 1.088.624 1.776.624z"/><path d="m335.963 117.88c.272-.144.568-.248.888-.312.336-.064.672-.096 1.008-.096v2.136c.224-.272.496-.544.816-.816.32-.288.68-.544 1.08-.768.4-.24.84-.432 1.32-.576s.992-.216 1.536-.216c.832 0 1.568.144 2.208.432.64.272 1.176.664 1.608 1.176.432.496.76 1.088.984 1.776s.336 1.44.336 2.256c0 1.056-.184 2.048-.552 2.976-.368.912-.88 1.712-1.536 2.4-.64.672-1.408 1.208-2.304 1.608-.88.384-1.84.576-2.88.576-.56 0-1.056-.064-1.488-.192-.432-.112-.808-.256-1.128-.432v6.024c-.224.128-.52.216-.888.264-.352.064-.688.096-1.008.096zm5.736.72c-.752 0-1.48.224-2.184.672-.688.448-1.24 1.016-1.656 1.704v6.552c.416.592.936 1.032 1.56 1.32.624.272 1.304.408 2.04.408.608 0 1.168-.112 1.68-.336.528-.224.984-.56 1.368-1.008.384-.464.688-1.04.912-1.728s.336-1.496.336-2.424c0-1.712-.352-3-1.056-3.864s-1.704-1.296-3-1.296z"/><path d="m350.331 117.88c.272-.144.568-.248.888-.312.336-.064.672-.096 1.008-.096v2.136c.224-.272.496-.544.816-.816.32-.288.68-.544 1.08-.768.4-.24.84-.432 1.32-.576s.992-.216 1.536-.216c.832 0 1.568.144 2.208.432.64.272 1.176.664 1.608 1.176.432.496.76 1.088.984 1.776s.336 1.44.336 2.256c0 1.056-.184 2.048-.552 2.976-.368.912-.88 1.712-1.536 2.4-.64.672-1.408 1.208-2.304 1.608-.88.384-1.84.576-2.88.576-.56 0-1.056-.064-1.488-.192-.432-.112-.808-.256-1.128-.432v6.024c-.224.128-.52.216-.888.264-.352.064-.688.096-1.008.096zm5.736.72c-.752 0-1.48.224-2.184.672-.688.448-1.24 1.016-1.656 1.704v6.552c.416.592.936 1.032 1.56 1.32.624.272 1.304.408 2.04.408.608 0 1.168-.112 1.68-.336.528-.224.984-.56 1.368-1.008.384-.464.688-1.04.912-1.728s.336-1.496.336-2.424c0-1.712-.352-3-1.056-3.864s-1.704-1.296-3-1.296z"/><path d="m363.691 127.456c.128-.224.336-.432.624-.624.304-.192.624-.304.96-.336.112.816.504 1.496 1.176 2.04.688.528 1.56.792 2.616.792 1.008 0 1.752-.216 2.232-.648.496-.448.744-1 .744-1.656s-.232-1.168-.696-1.536c-.448-.368-1.224-.688-2.328-.96l-1.416-.36c-.512-.128-.976-.272-1.392-.432-.4-.16-.752-.352-1.056-.576-.288-.24-.512-.52-.672-.84s-.24-.712-.24-1.176c0-.496.128-.976.384-1.44.256-.48.608-.904 1.056-1.272.464-.368.992-.656 1.584-.864.608-.224 1.264-.336 1.968-.336.72 0 1.328.088 1.824.264.496.16.904.368 1.224.624.336.24.576.504.72.792.16.288.248.544.264.768-.112.224-.304.424-.576.6-.272.16-.568.256-.888.288-.112-.608-.424-1.136-.936-1.584s-1.28-.672-2.304-.672c-.336 0-.672.048-1.008.144-.32.08-.608.208-.864.384s-.464.392-.624.648c-.16.24-.24.528-.24.864 0 .544.192.984.576 1.32.384.32 1.056.592 2.016.816l1.464.36c1.392.352 2.384.8 2.976 1.344.608.528.912 1.208.912 2.04 0 .528-.12 1.048-.36 1.56-.24.496-.592.944-1.056 1.344-.464.384-1.032.688-1.704.912-.672.24-1.44.36-2.304.36-.752 0-1.408-.096-1.968-.288-.56-.176-1.04-.408-1.44-.696-.384-.288-.68-.6-.888-.936-.208-.352-.328-.696-.36-1.032z"/></g><path clip-rule="evenodd" d="m139.293 51.2595c6.491 20.409-3.952 42.38-23.924 49.6495-20.5024 7.462-43.4823-3.9617-50.8654-24.2466-.9869-2.7114-3.0069-8.1126-2.3374-18.7097.4006-6.3419.6499-10.3252.353-13.7753-.1633-1.8961-.2571-4.9689 3.9492-1.4374 2.4802 2.0823 3.9189 5.852 3.9189 5.852s4.0509-6.476 4.7997-16.3036c1.0976-14.407-6.0612-20.1746-9.4594-24.76045-1.1757-1.58632-2.6709-4.66216 1.4487-4.62131 4.1978.04196 16.4921 3.44005 24.263 8.90986 11.0907 7.8065 17.3287 16.8922 17.3287 16.8922s1.261-3.7932.967-7.1751c-.332-3.8189-1.573-7.2695 2.779-4.6503 4.139 2.4908 10.792 7.581 15.473 13.0187 8.5 9.8748 11.306 21.3575 11.306 21.3575z" fill="url(#a)" fill-rule="evenodd"/><path clip-rule="evenodd" d="m115.368 100.911c-14.177 5.16-29.9245-2.3468-35.173-16.7667-3.1668-8.7008-1.6422-15.238 2.9249-25.0129 2.9243-6.2588 5.1733-13.4572 5.6044-17.9584.0849-.8861-.5287-5.1193 4.3049-1.6605 2.5355 1.8138 6.6954 5.1666 9.6948 8.2285 5.171 5.2792 8.087 11.1584 8.087 11.1584s2.198-2.709 2.546-7.7501c.112-1.6247-.56-7.3768 4.878-3.3605 3.99 2.9475 10.072 8.6447 13.3 17.6694 5.248 14.42-1.99 30.2924-16.167 35.4528z" fill="#fc9502" fill-rule="evenodd"/><path clip-rule="evenodd" d="m105.373 72.2441c3.654-1.3296 6.158 5.5508 14.142 13.0487 5.316 4.9926 3 13.0097-3.761 15.4702-6.762 2.461-12.297-1.8372-14.8-8.7144-2.5034-6.8768.766-18.4749 4.419-19.8045z" fill="#fce202" fill-rule="evenodd"/></svg>