<svg fill="none" height="32" viewBox="0 0 32 32" width="32" xmlns="http://www.w3.org/2000/svg" xmlns:xlink="http://www.w3.org/1999/xlink"><linearGradient id="a" gradientUnits="userSpaceOnUse" x1="20.1723" x2="11.8031" y1="27.5271" y2="4.53294"><stop offset="0" stop-color="#ff4c0d"/><stop offset="1" stop-color="#fc9502"/></linearGradient><g clip-rule="evenodd" fill-rule="evenodd"><path d="m25.5283 16.3607c1.4582 4.585-.8877 9.5209-5.3747 11.154-4.606 1.6765-9.7685-.89-11.42718-5.4471-.2217-.6091-.67551-1.8225-.52511-4.2032.09001-1.4248.14601-2.3196.07932-3.0947-.03669-.426-.05776-1.1163.8872-.3229.55719.4678.88037 1.3146.88037 1.3146s.9101-1.4548 1.0783-3.6626c.2466-3.23667-1.36168-4.5324-2.12508-5.56263-.26415-.35637-.60005-1.04738.32544-1.0382.94304.00943 3.70504.77283 5.45084 2.00164 2.4915 1.75378 3.8931 3.79499 3.8931 3.79499s.2832-.8522.2171-1.61198c-.0747-.85794-.3533-1.63314.6244-1.04471.9298.55956 2.4244 1.70309 3.476 2.92469 1.9095 2.2185 2.54 4.7981 2.54 4.7981z" fill="url(#a)"/><path d="m20.1531 27.515c-3.185 1.1593-6.7227-.5271-7.9018-3.7666-.7114-1.9547-.3689-3.4233.6571-5.6193.657-1.406 1.1622-3.0232 1.2591-4.0344.0191-.1991-.1188-1.1501.9671-.3731.5696.4075 1.5042 1.1607 2.178 1.8486 1.1618 1.186 1.8167 2.5068 1.8167 2.5068s.494-.6086.572-1.7411c.0252-.365-.1256-1.6572 1.096-.7549.8964.6621 2.2626 1.942 2.9878 3.9695 1.179 3.2395-.4471 6.8053-3.632 7.9645z" fill="#fc9502"/><path d="m17.9079 21.075c.8207-.2987 1.3833 1.247 3.177 2.9315 1.1943 1.1216.674 2.9227-.845 3.4756-1.519.5528-2.7626-.4129-3.3249-1.9579-.5623-1.5449.1723-4.1505.9929-4.4492z" fill="#fce202"/></g></svg>
