<svg fill="none" height="600" viewBox="0 0 600 600" width="600" xmlns="http://www.w3.org/2000/svg" xmlns:xlink="http://www.w3.org/1999/xlink"><linearGradient id="a" gradientUnits="userSpaceOnUse" x1="372.709" x2="175.48" y1="553.443" y2="11.5593"><stop offset="0" stop-color="#ff4c0d"/><stop offset="1" stop-color="#fc9502"/></linearGradient><g clip-rule="evenodd" fill-rule="evenodd"><path d="m498.929 290.294c34.364 108.05-20.92 224.37-126.66 262.856-108.544 39.507-230.206-20.974-269.294-128.367-5.2244-14.355-15.9189-42.95-12.3745-99.054 2.1211-33.576 3.4407-54.664 1.869-72.93-.8645-10.039-1.361-26.307 20.9085-7.61 13.13 11.024 20.747 30.982 20.747 30.982s21.447-34.286 25.411-86.315c5.811-76.275-32.09-106.8098-50.08-131.0883-6.225-8.3984-14.141-24.6827 7.669-24.4664 22.225.2221 87.314 18.2125 128.455 47.1709 58.716 41.3298 91.745 89.4318 91.745 89.4318s6.675-20.082 5.116-37.987c-1.759-20.218-8.325-38.4867 14.714-24.62 21.912 13.187 57.134 40.136 81.916 68.924 45 52.28 59.858 113.073 59.858 113.073z" fill="url(#a)"/><path d="m372.258 553.158c-75.058 27.318-158.427-12.422-186.214-88.765-16.766-46.064-8.694-80.674 15.486-132.425 15.481-33.135 27.388-71.246 29.67-95.076.45-4.691-2.799-27.103 22.792-8.791 13.423 9.603 35.447 27.353 51.327 43.563 27.378 27.95 42.812 59.076 42.812 59.076s11.641-14.342 13.48-41.031c.593-8.602-2.961-39.054 25.828-17.791 21.124 15.605 53.32 45.767 70.41 93.546 27.786 76.343-10.536 160.376-85.591 187.694z" fill="#fc9502"/><path d="m319.347 401.391c19.34-7.039 32.598 29.388 74.868 69.084 28.146 26.432 15.884 68.876-19.913 81.905-35.796 13.029-65.103-9.729-78.355-46.139-13.251-36.407 4.06-97.81 23.4-104.85z" fill="#fce202"/></g></svg>